<svg width="18" height="18" viewBox="0 0 18 18" fill="none" xmlns="http://www.w3.org/2000/svg">
<path d="M5.4 0H1.6C1.03995 0 0.759921 0 0.546009 0.108993C0.357847 0.204867 0.204867 0.357847 0.108993 0.546009C0 0.759921 0 1.03995 0 1.6V5.4C0 5.96005 0 6.24008 0.108993 6.45399C0.204867 6.64215 0.357847 6.79513 0.546009 6.89101C0.759921 7 1.03995 7 1.6 7H5.4C5.96005 7 6.24008 7 6.45399 6.89101C6.64215 6.79513 6.79513 6.64215 6.89101 6.45399C7 6.24008 7 5.96005 7 5.4V1.6C7 1.03995 7 0.759921 6.89101 0.546009C6.79513 0.357847 6.64215 0.204867 6.45399 0.108993C6.24008 0 5.96005 0 5.4 0Z" fill="#6941C6"/>
<path d="M16.4 0H12.6C12.0399 0 11.7599 0 11.546 0.108993C11.3578 0.204867 11.2049 0.357847 11.109 0.546009C11 0.759921 11 1.03995 11 1.6V5.4C11 5.96005 11 6.24008 11.109 6.45399C11.2049 6.64215 11.3578 6.79513 11.546 6.89101C11.7599 7 12.0399 7 12.6 7H16.4C16.9601 7 17.2401 7 17.454 6.89101C17.6422 6.79513 17.7951 6.64215 17.891 6.45399C18 6.24008 18 5.96005 18 5.4V1.6C18 1.03995 18 0.759921 17.891 0.546009C17.7951 0.357847 17.6422 0.204867 17.454 0.108993C17.2401 0 16.9601 0 16.4 0Z" fill="#6941C6"/>
<path d="M16.4 11H12.6C12.0399 11 11.7599 11 11.546 11.109C11.3578 11.2049 11.2049 11.3578 11.109 11.546C11 11.7599 11 12.0399 11 12.6V16.4C11 16.9601 11 17.2401 11.109 17.454C11.2049 17.6422 11.3578 17.7951 11.546 17.891C11.7599 18 12.0399 18 12.6 18H16.4C16.9601 18 17.2401 18 17.454 17.891C17.6422 17.7951 17.7951 17.6422 17.891 17.454C18 17.2401 18 16.9601 18 16.4V12.6C18 12.0399 18 11.7599 17.891 11.546C17.7951 11.3578 17.6422 11.2049 17.454 11.109C17.2401 11 16.9601 11 16.4 11Z" fill="#6941C6"/>
<path d="M5.4 11H1.6C1.03995 11 0.759921 11 0.546009 11.109C0.357847 11.2049 0.204867 11.3578 0.108993 11.546C0 11.7599 0 12.0399 0 12.6V16.4C0 16.9601 0 17.2401 0.108993 17.454C0.204867 17.6422 0.357847 17.7951 0.546009 17.891C0.759921 18 1.03995 18 1.6 18H5.4C5.96005 18 6.24008 18 6.45399 17.891C6.64215 17.7951 6.79513 17.6422 6.89101 17.454C7 17.2401 7 16.9601 7 16.4V12.6C7 12.0399 7 11.7599 6.89101 11.546C6.79513 11.3578 6.64215 11.2049 6.45399 11.109C6.24008 11 5.96005 11 5.4 11Z" fill="#6941C6"/>
</svg>
